<svg width="72" height="70" viewBox="0 0 72 70" fill="none" xmlns="http://www.w3.org/2000/svg">
<path d="M35.9999 0C16.5247 0 0.71875 15.68 0.71875 35C0.71875 54.32 16.5247 70 35.9999 70C55.4751 70 71.281 54.32 71.281 35C71.281 15.68 55.4751 0 35.9999 0ZM26.4387 50.015L13.7728 37.45C12.3968 36.085 12.3968 33.88 13.7728 32.515C15.1487 31.15 17.3714 31.15 18.7474 32.515L28.9437 42.595L53.2171 18.515C54.593 17.15 56.8157 17.15 58.1917 18.515C59.5677 19.88 59.5677 22.085 58.1917 23.45L31.4133 50.015C30.0726 51.38 27.8147 51.38 26.4387 50.015Z" fill="#1a8a2d"/>
</svg>
